<svg aria-hidden="true" style="position: absolute; width: 0; height: 0; overflow: hidden;" version="1.1" xmlns="http://www.w3.org/2000/svg" xmlns:xlink="http://www.w3.org/1999/xlink">
<defs>
<symbol id="icon-ultimate-card-logo" viewBox="0 0 51 32">
<path d="M0 0h51.2v32h-51.2v-32z"></path>
</symbol>
<symbol id="icon-art-print-logo" viewBox="0 0 131 32">
<path d="M0 0h131.478v32h-131.478v-32z"></path>
</symbol>
<symbol id="icon-city-park-logo" viewBox="0 0 152 32">
<path d="M0 0h152.421v32h-152.421v-32z"></path>
</symbol>
<symbol id="icon-infratek-logo" viewBox="0 0 97 32">
<path d="M0 0h97.067v32h-97.067v-32z"></path>
</symbol>
<symbol id="icon-ecleasing-logo" viewBox="0 0 61 32">
<path d="M0 0h61.474v32h-61.474v-32z"></path>
</symbol>
<symbol id="icon-clickky-logo" viewBox="0 0 72 32">
<path d="M0 0h72.393v32h-72.393v-32z"></path>
</symbol>
<symbol id="icon-adtelligent" viewBox="0 0 125 32">
<path d="M0 0h124.667v32h-124.667v-32z"></path>
</symbol>
<symbol id="icon-gorangear-logo" viewBox="0 0 127 32">
<path d="M0 0h126.545v32h-126.545v-32z"></path>
</symbol>
<symbol id="icon-logo-3dlook" viewBox="0 0 137 32">
<path d="M0 0h137.143v32h-137.143v-32z"></path>
</symbol>
<symbol id="icon-tapgerine-logo" viewBox="0 0 130 32">
<path d="M0 0h130.182v32h-130.182v-32z"></path>
</symbol>
<symbol id="icon-wannabiz-logo" viewBox="0 0 199 32">
<path d="M0 0h199v32h-199v-32z"></path>
</symbol>
<symbol id="icon-hillel-logo" viewBox="0 0 145 32">
<path d="M0 8c0-4.418 3.582-8 8-8h136.667v32h-144.667v-24z"></path>
</symbol>
<symbol id="icon-judicial-representation" viewBox="0 0 32 32">
<path fill="#fff" style="fill: var(--color3, #fff)" d="M8.58 0h15.304c4.61 0 8.348 3.737 8.348 8.348v15.304c0 4.61-3.737 8.348-8.348 8.348h-15.304c-4.61 0-8.348-3.737-8.348-8.348v-15.304c0-4.61 3.737-8.348 8.348-8.348z"></path>
<path fill="#000" style="fill: var(--color1, #000)" d="M19.137 11.961c0.255 0.255 0.667 0.255 0.922 0l0.907-0.907c0.254-0.255 0.254-0.667 0-0.922l-2.29-2.289c-0.254-0.255-0.666-0.255-0.921 0l-0.907 0.907c-0.254 0.255-0.254 0.667 0 0.921l2.289 2.29z"></path>
<path fill="#000" style="fill: var(--color1, #000)" d="M13.716 17.484c0.254 0.254 0.667 0.254 0.921 0l0.907-0.908c0.255-0.254 0.255-0.667 0-0.921l-2.29-2.29c-0.254-0.254-0.667-0.255-0.921 0l-0.907 0.907c-0.255 0.255-0.254 0.667 0 0.922l2.29 2.29z"></path>
<path fill="#000" style="fill: var(--color1, #000)" d="M24.109 17.701l-0.921-0.922c-0.255-0.254-0.667-0.254-0.921 0l-0.404 0.403-3.897-3.898 0.844-0.845-2.342-2.341-2.746 2.745 2.342 2.342 0.827-0.825 3.897 3.897-0.365 0.365c-0.255 0.254-0.255 0.666 0 0.921l0.921 0.921c0.255 0.255 0.667 0.255 0.922 0l1.843-1.842c0.255-0.255 0.255-0.667 0-0.921z"></path>
<path fill="#000" style="fill: var(--color1, #000)" d="M17.302 20.502c0-0.417-0.338-0.756-0.756-0.756h-5.902c-0.417 0-0.756 0.339-0.756 0.756v1.227h-1.657v2.57h10.629v-2.57h-1.559v-1.227z"></path>
</symbol>
<symbol id="icon-daily-legal-support" viewBox="0 0 32 32">
<path fill="#fff" style="fill: var(--color3, #fff)" d="M8.464 0h15.304c4.61 0 8.348 3.737 8.348 8.348v15.304c0 4.61-3.737 8.348-8.348 8.348h-15.304c-4.61 0-8.348-3.737-8.348-8.348v-15.304c0-4.61 3.737-8.348 8.348-8.348z"></path>
<path fill="#000" style="fill: var(--color1, #000)" d="M23.577 17.070v6.016c0 1.076-0.843 1.958-1.874 1.958h-11.163c-1.031 0-1.874-0.882-1.874-1.958v-6.016h5.797v2.612l1.659 1.090 1.659-1.090v-2.612h5.797z"></path>
<path fill="#000" style="fill: var(--color1, #000)" d="M15.044 17.070v2.299l1.078 0.708 1.078-0.708v-2.299h-2.155z"></path>
<path fill="#000" style="fill: var(--color1, #000)" d="M9.185 10.137h13.874c0.655 0 1.19 0.594 1.19 1.32v3.566c0 0.726-0.535 1.32-1.19 1.32h-13.874c-0.655 0-1.19-0.594-1.19-1.32v-3.566c0-0.726 0.535-1.32 1.19-1.32z"></path>
<path fill="#000" style="fill: var(--color1, #000)" d="M13.233 6.941h5.777c0.537 0 0.976 0.439 0.976 0.976v1.523h-1.237v-0.9c0-0.243-0.198-0.442-0.441-0.442h-4.373c-0.243 0-0.441 0.199-0.441 0.442v0.9h-1.237v-1.523c0-0.537 0.439-0.976 0.976-0.976z"></path>
</symbol>
<symbol id="icon-scroll" viewBox="0 0 32 32">
<path fill="none" opacity="0.5" stroke="#fff" style="stroke: var(--color3, #fff)" stroke-linejoin="miter" stroke-linecap="butt" stroke-miterlimit="4" stroke-width="1.5238" d="M31.238 16c0 8.416-6.822 15.238-15.238 15.238s-15.238-6.822-15.238-15.238c0-8.416 6.822-15.238 15.238-15.238s15.238 6.822 15.238 15.238z"></path>
<path fill="none" stroke="#fff" style="stroke: var(--color3, #fff)" stroke-linejoin="miter" stroke-linecap="butt" stroke-miterlimit="4" stroke-width="1.5238" d="M9.143 13.714l6.857 6.857 6.857-6.857"></path>
</symbol>
<symbol id="icon-facebook-Header" viewBox="0 0 31 32">
<path d="M30.72 16.094c0-8.535-6.877-15.454-15.36-15.454s-15.36 6.919-15.36 15.454c0 7.714 5.617 14.107 12.96 15.266v-10.799h-3.9v-4.467h3.9v-3.405c0-3.873 2.293-6.013 5.802-6.013 1.68 0 3.438 0.302 3.438 0.302v3.803h-1.937c-1.908 0-2.503 1.191-2.503 2.413v2.899h4.26l-0.681 4.467h-3.579v10.799c7.343-1.159 12.96-7.553 12.96-15.266z"></path>
</symbol>
<symbol id="icon-close" viewBox="0 0 32 32">
<path fill="none" stroke="#ec6f5d" style="stroke: var(--color4, #ec6f5d)" stroke-linejoin="miter" stroke-linecap="butt" stroke-miterlimit="4" stroke-width="2" d="M7 7l18 18"></path>
<path fill="none" stroke="#ec6f5d" style="stroke: var(--color4, #ec6f5d)" stroke-linejoin="miter" stroke-linecap="butt" stroke-miterlimit="4" stroke-width="2" d="M25 7l-18 18"></path>
</symbol>
<symbol id="icon-hamburger" viewBox="0 0 31 32">
<path fill="none" stroke="currentColor" stroke-linejoin="miter"
    stroke-linecap="butt" stroke-miterlimit="4" stroke-width="1.9394"
    d="M6.788 10.182h17.455"></path>
  <path fill="none" stroke="currentColor" stroke-linejoin="miter"
    stroke-linecap="butt" stroke-miterlimit="4" stroke-width="1.9394"
    d="M6.788 16h17.455"></path>
  <path fill="none" stroke="currentColor" stroke-linejoin="miter"
    stroke-linecap="butt" stroke-miterlimit="4" stroke-width="1.9394"
    d="M6.788 21.818h17.455"></path>
</symbol>
<symbol id="icon-hlegal-logo" viewBox="0 0 68 32">
<path fill="#f0145a" style="fill: var(--color2, #f0145a)" d="M2.563 0h-2.563v18.514h2.563v-6.869c0-1.162 0.289-2.079 0.867-2.724s1.37-0.981 2.35-0.981c0.842 0 1.546 0.31 2.111 0.904 0.565 0.607 0.854 1.368 0.854 2.285v7.398h2.576v-7.398c0-1.704-0.465-3.047-1.395-4.054s-2.149-1.511-3.632-1.511c-0.427 0-0.854 0.052-1.269 0.168-0.427 0.116-0.767 0.245-1.043 0.387s-0.54 0.297-0.779 0.478c-0.239 0.181-0.402 0.31-0.478 0.387s-0.138 0.129-0.163 0.168v-7.153z"></path>
<path fill="#fff" style="fill: var(--color3, #fff)" d="M17.053 0h-2.643v18.499h2.643v-18.499z"></path>
<path fill="#fff" style="fill: var(--color3, #fff)" d="M32.64 13.081l0.132-1.321c0-1.771-0.581-3.251-1.771-4.44s-2.669-1.771-4.44-1.771-3.303 0.634-4.572 1.903c-1.268 1.268-1.903 2.775-1.903 4.572 0 1.85 0.661 3.435 1.956 4.757s2.854 1.982 4.651 1.982c0.687 0 1.321-0.106 1.956-0.291 0.634-0.211 1.163-0.423 1.533-0.634 0.396-0.238 0.793-0.502 1.136-0.793s0.581-0.502 0.687-0.634c0.106-0.132 0.185-0.211 0.238-0.291l-1.718-1.718-0.396 0.502c-0.264 0.317-0.713 0.634-1.348 0.978-0.661 0.344-1.348 0.502-2.088 0.502-1.031 0-1.903-0.317-2.643-0.978s-1.189-1.427-1.321-2.326h9.91zM26.562 7.795c0.978 0 1.771 0.291 2.431 0.846 0.634 0.581 1.031 1.295 1.189 2.193h-7.347c0.238-0.899 0.661-1.612 1.321-2.193 0.634-0.555 1.453-0.846 2.405-0.846z"></path>
<path fill="#fff" style="fill: var(--color3, #fff)" d="M44.964 17.732c0 1.163-0.343 2.114-1.057 2.854-0.687 0.713-1.559 1.084-2.643 1.084-0.476 0-0.951-0.079-1.401-0.212s-0.793-0.291-1.083-0.476c-0.291-0.185-0.555-0.37-0.819-0.608-0.238-0.238-0.396-0.396-0.476-0.476s-0.132-0.159-0.185-0.211l-1.718 1.718 0.211 0.264c0.132 0.185 0.37 0.423 0.687 0.687 0.317 0.238 0.687 0.502 1.11 0.766 0.423 0.238 0.951 0.449 1.612 0.634s1.348 0.291 2.061 0.291c1.797 0 3.277-0.608 4.519-1.823 1.216-1.242 1.823-2.722 1.823-4.519v-11.892h-2.643v1.321l-0.449-0.396c-0.291-0.264-0.74-0.529-1.374-0.793s-1.321-0.396-2.008-0.396c-1.612 0-2.986 0.608-4.175 1.85s-1.771 2.722-1.771 4.492c0 1.771 0.581 3.251 1.771 4.493s2.563 1.85 4.175 1.85c0.449 0 0.872-0.053 1.321-0.159 0.423-0.132 0.766-0.264 1.057-0.396s0.555-0.291 0.793-0.476c0.238-0.185 0.423-0.317 0.476-0.37l0.185-0.185v1.083zM37.829 11.892c0-1.11 0.344-2.035 1.057-2.801s1.559-1.163 2.511-1.163c0.951 0 1.797 0.396 2.51 1.163 0.687 0.766 1.057 1.691 1.057 2.801s-0.37 2.035-1.057 2.801c-0.714 0.766-1.559 1.163-2.51 1.163s-1.797-0.396-2.511-1.163-1.057-1.691-1.057-2.801z"></path>
<path fill="#fff" style="fill: var(--color3, #fff)" d="M61.401 18.498v-8.192c0-1.348-0.502-2.484-1.48-3.383-0.978-0.925-2.246-1.374-3.805-1.374-0.608 0-1.216 0.079-1.797 0.238-0.581 0.185-1.057 0.37-1.401 0.581s-0.687 0.449-1.004 0.74c-0.317 0.264-0.502 0.449-0.608 0.555-0.079 0.106-0.159 0.185-0.211 0.264l1.718 1.718 0.344-0.449c0.211-0.291 0.581-0.555 1.136-0.846s1.163-0.423 1.823-0.423c0.766 0 1.401 0.238 1.903 0.687s0.74 1.031 0.74 1.691l-4.625 0.793c-1.136 0.185-2.061 0.634-2.695 1.348-0.661 0.713-1.004 1.586-1.004 2.616 0 0.978 0.423 1.824 1.268 2.563 0.872 0.766 1.929 1.136 3.224 1.136 0.449 0 0.872-0.053 1.295-0.185 0.449-0.106 0.793-0.238 1.083-0.37s0.555-0.291 0.793-0.476c0.238-0.185 0.396-0.317 0.502-0.37 0.079-0.079 0.132-0.159 0.159-0.185v1.321h2.643zM55.323 16.384c-0.687 0-1.242-0.159-1.639-0.476-0.423-0.317-0.608-0.687-0.608-1.11 0-0.449 0.132-0.846 0.423-1.136s0.687-0.502 1.163-0.581l4.096-0.661v0.264c0 1.189-0.291 2.088-0.899 2.748-0.608 0.634-1.453 0.951-2.537 0.951z"></path>
<path fill="#fff" style="fill: var(--color3, #fff)" d="M67.233 0h-2.643v18.499h2.643v-18.499z"></path>
<path fill="#fff" style="fill: var(--color3, #fff)" d="M0 27.472h0.827v2.9h1.792v0.674h-2.619v-3.574z"></path>
<path fill="#fff" style="fill: var(--color3, #fff)" d="M8.017 30.28h-1.659l-0.317 0.766h-0.847l1.593-3.574h0.817l1.598 3.574h-0.868l-0.317-0.766zM7.757 29.652l-0.567-1.368-0.567 1.368h1.133z"></path>
<path fill="#fff" style="fill: var(--color3, #fff)" d="M17.331 27.472l-1.169 3.574h-0.888l-0.786-2.42-0.812 2.42h-0.883l-1.174-3.574h0.858l0.807 2.512 0.842-2.512h0.766l0.817 2.532 0.832-2.532h0.791z"></path>
<path fill="#fff" style="fill: var(--color3, #fff)" d="M26.129 31.107c-0.364 0-0.694-0.078-0.99-0.235-0.293-0.16-0.524-0.379-0.694-0.659-0.167-0.282-0.25-0.601-0.25-0.955s0.083-0.67 0.25-0.95c0.17-0.283 0.402-0.502 0.694-0.659 0.296-0.16 0.628-0.24 0.995-0.24 0.31 0 0.589 0.054 0.837 0.163 0.252 0.109 0.463 0.265 0.633 0.47l-0.531 0.49c-0.242-0.279-0.541-0.419-0.899-0.419-0.221 0-0.419 0.049-0.592 0.148-0.174 0.095-0.31 0.23-0.408 0.403-0.095 0.174-0.143 0.371-0.143 0.592s0.048 0.419 0.143 0.592c0.099 0.174 0.235 0.31 0.408 0.408 0.174 0.095 0.371 0.143 0.592 0.143 0.357 0 0.657-0.141 0.899-0.424l0.531 0.49c-0.17 0.208-0.381 0.366-0.633 0.475s-0.533 0.163-0.842 0.163z"></path>
<path fill="#fff" style="fill: var(--color3, #fff)" d="M32.371 31.107c-0.371 0-0.706-0.080-1.006-0.24-0.296-0.16-0.529-0.38-0.699-0.659-0.167-0.282-0.25-0.599-0.25-0.95s0.083-0.665 0.25-0.945c0.17-0.282 0.403-0.504 0.699-0.664 0.3-0.16 0.635-0.24 1.006-0.24s0.705 0.080 1.001 0.24c0.296 0.16 0.529 0.381 0.699 0.664 0.17 0.279 0.255 0.594 0.255 0.945s-0.085 0.667-0.255 0.95c-0.17 0.279-0.403 0.499-0.699 0.659s-0.63 0.24-1.001 0.24zM32.371 30.403c0.211 0 0.402-0.048 0.572-0.143 0.17-0.099 0.303-0.235 0.398-0.408 0.099-0.174 0.148-0.371 0.148-0.592s-0.049-0.419-0.148-0.592c-0.095-0.174-0.228-0.308-0.398-0.403-0.17-0.099-0.361-0.148-0.572-0.148s-0.402 0.049-0.572 0.148c-0.17 0.095-0.305 0.23-0.403 0.403-0.095 0.174-0.143 0.371-0.143 0.592s0.048 0.419 0.143 0.592c0.099 0.174 0.233 0.31 0.403 0.408 0.17 0.095 0.361 0.143 0.572 0.143z"></path>
<path fill="#fff" style="fill: var(--color3, #fff)" d="M40.753 31.046l-0.005-2.144-1.052 1.766h-0.373l-1.047-1.72v2.098h-0.776v-3.574h0.684l1.338 2.221 1.317-2.221h0.679l0.010 3.574h-0.776z"></path>
<path fill="#fff" style="fill: var(--color3, #fff)" d="M46.476 27.472c0.316 0 0.59 0.053 0.822 0.158 0.235 0.105 0.415 0.255 0.541 0.449s0.189 0.424 0.189 0.689c0 0.262-0.063 0.492-0.189 0.689-0.126 0.194-0.306 0.344-0.541 0.449-0.231 0.102-0.505 0.153-0.822 0.153h-0.72v0.985h-0.827v-3.574h1.547zM46.43 29.387c0.248 0 0.437-0.053 0.567-0.158 0.129-0.109 0.194-0.262 0.194-0.459 0-0.201-0.065-0.354-0.194-0.459-0.129-0.109-0.318-0.163-0.567-0.163h-0.674v1.241h0.674z"></path>
<path fill="#fff" style="fill: var(--color3, #fff)" d="M53.345 30.28h-1.659l-0.316 0.766h-0.847l1.593-3.574h0.817l1.598 3.574h-0.868l-0.316-0.766zM53.085 29.652l-0.567-1.368-0.567 1.368h1.133z"></path>
<path fill="#fff" style="fill: var(--color3, #fff)" d="M60.73 27.472v3.574h-0.679l-1.782-2.17v2.17h-0.817v-3.574h0.684l1.777 2.17v-2.17h0.817z"></path>
<path fill="#fff" style="fill: var(--color3, #fff)" d="M65.844 29.78v1.266h-0.827v-1.276l-1.384-2.297h0.878l0.955 1.588 0.955-1.588h0.812l-1.389 2.308z"></path>
</symbol>
</defs>
</svg>
